<svg width="99" height="16" viewBox="0 0 99 16" fill="none" xmlns="http://www.w3.org/2000/svg">
<path d="M34.4341 12.16C34.1557 12.16 33.9301 11.9344 33.9301 11.656V6.508C33.9301 6.22965 34.1557 6.004 34.4341 6.004C34.7124 6.004 34.9381 6.22965 34.9381 6.508V11.656C34.9381 11.9344 34.7124 12.16 34.4341 12.16ZM34.4341 4.756C34.2341 4.756 34.0661 4.692 33.9301 4.564C33.8021 4.428 33.7381 4.26 33.7381 4.06C33.7381 3.86 33.8021 3.7 33.9301 3.58C34.0661 3.452 34.2341 3.388 34.4341 3.388C34.6261 3.388 34.7901 3.452 34.9261 3.58C35.0621 3.7 35.1301 3.86 35.1301 4.06C35.1301 4.26 35.0621 4.428 34.9261 4.564C34.7901 4.692 34.6261 4.756 34.4341 4.756Z" fill="#D33030"/>
<path d="M37.2089 12.16C36.9306 12.16 36.7049 11.9344 36.7049 11.656V6.47325C36.7049 6.21409 36.915 6.004 37.1742 6.004H37.4089C37.5257 6.004 37.6222 6.09506 37.629 6.21164C37.6421 6.437 38.0077 6.53437 38.179 6.38742C38.2717 6.308 38.3723 6.23619 38.4809 6.172C38.8329 5.964 39.2369 5.86 39.6929 5.86C40.1649 5.86 40.5729 5.952 40.9169 6.136C41.2609 6.32 41.5289 6.6 41.7209 6.976C41.9129 7.344 42.0089 7.812 42.0089 8.38V11.656C42.0089 11.9344 41.7833 12.16 41.5049 12.16C41.2266 12.16 41.0009 11.9344 41.0009 11.656V8.488C41.0009 7.904 40.8649 7.464 40.5929 7.168C40.3209 6.872 39.9449 6.724 39.4649 6.724C39.1449 6.724 38.8489 6.804 38.5769 6.964C38.3129 7.124 38.1009 7.356 37.9409 7.66C37.7889 7.956 37.7129 8.324 37.7129 8.764V11.656C37.7129 11.9344 37.4873 12.16 37.2089 12.16Z" fill="#D33030"/>
<path d="M46.0193 12.16C45.6593 12.16 45.3473 12.104 45.0833 11.992C44.8193 11.88 44.6153 11.692 44.4713 11.428C44.3353 11.156 44.2673 10.792 44.2673 10.336V7.396C44.2673 7.09777 44.0255 6.856 43.7273 6.856H43.6132C43.378 6.856 43.1873 6.66527 43.1873 6.43C43.1873 6.19473 43.378 6.004 43.6132 6.004H43.751C44.0431 6.004 44.2869 5.78076 44.3125 5.4897L44.3625 4.92115C44.3833 4.68508 44.581 4.504 44.818 4.504C45.0705 4.504 45.2753 4.70871 45.2753 4.96123V5.254C45.2753 5.66821 45.611 6.004 46.0253 6.004H46.6133C46.8485 6.004 47.0393 6.19473 47.0393 6.43C47.0393 6.66527 46.8485 6.856 46.6133 6.856H46.1573C45.6701 6.856 45.2753 7.25089 45.2753 7.738V10.336C45.2753 10.712 45.3513 10.968 45.5033 11.104C45.6553 11.232 45.9233 11.296 46.3073 11.296H46.5473C46.7858 11.296 46.9793 11.4894 46.9793 11.728C46.9793 11.9666 46.7858 12.16 46.5473 12.16H46.0193Z" fill="#D33030"/>
<path d="M50.8527 12.304C50.2927 12.304 49.7927 12.172 49.3527 11.908C48.9207 11.636 48.5807 11.26 48.3327 10.78C48.0847 10.292 47.9607 9.728 47.9607 9.088C47.9607 8.44 48.0847 7.876 48.3327 7.396C48.5807 6.908 48.9207 6.532 49.3527 6.268C49.7927 5.996 50.3007 5.86 50.8767 5.86C51.4767 5.86 51.9807 5.996 52.3887 6.268C52.8047 6.532 53.1207 6.884 53.3367 7.324C53.5527 7.764 53.6607 8.244 53.6607 8.764C53.6607 8.844 53.6607 8.928 53.6607 9.016C53.6607 9.18521 53.5176 9.316 53.3484 9.316H49.1067C48.8913 9.316 48.7167 9.14139 48.7167 8.926C48.7167 8.71061 48.8913 8.536 49.1067 8.536H51.6369C52.2 8.536 52.6977 8.03677 52.4145 7.55016C52.3362 7.4156 52.2396 7.29621 52.1247 7.192C51.7887 6.872 51.3647 6.712 50.8527 6.712C50.5167 6.712 50.2047 6.792 49.9167 6.952C49.6287 7.112 49.3927 7.348 49.2087 7.66C49.0327 7.964 48.9447 8.348 48.9447 8.812V9.148C48.9447 9.652 49.0327 10.076 49.2087 10.42C49.3927 10.764 49.6287 11.024 49.9167 11.2C50.2047 11.368 50.5167 11.452 50.8527 11.452C51.2927 11.452 51.6447 11.364 51.9087 11.188C52.0852 11.065 52.2312 10.9099 52.3469 10.7226C52.4541 10.5491 52.6309 10.42 52.8348 10.42C53.1641 10.42 53.4011 10.7391 53.2353 11.0237C53.1603 11.1524 53.0741 11.2752 52.9767 11.392C52.7447 11.672 52.4487 11.896 52.0887 12.064C51.7367 12.224 51.3247 12.304 50.8527 12.304Z" fill="#D33030"/>
<path d="M55.5253 12.16C55.247 12.16 55.0213 11.9344 55.0213 11.656V6.4766C55.0213 6.21559 55.2329 6.004 55.4939 6.004H55.7025C55.8326 6.004 55.9406 6.10446 55.9501 6.23425L55.9527 6.2694C55.9704 6.51293 56.3628 6.61023 56.5453 6.448C56.7693 6.256 57.0373 6.112 57.3493 6.016C57.5146 5.9609 57.6911 5.9204 57.8788 5.8945C58.1677 5.85463 58.4053 6.09639 58.4053 6.388V6.448C58.4053 6.70647 58.1958 6.916 57.9373 6.916C57.6893 6.916 57.4493 6.952 57.2173 7.024C56.9933 7.088 56.7893 7.196 56.6053 7.348C56.4293 7.492 56.2893 7.692 56.1853 7.948C56.0813 8.204 56.0293 8.524 56.0293 8.908V11.656C56.0293 11.9344 55.8037 12.16 55.5253 12.16Z" fill="#D33030"/>
<path d="M60.4205 12.16C60.1421 12.16 59.9165 11.9344 59.9165 11.656V5.176C59.9165 4.792 59.9805 4.48 60.1085 4.24C60.2365 3.992 60.4245 3.812 60.6725 3.7C60.9285 3.58 61.2405 3.52 61.6085 3.52H61.9565C62.1951 3.52 62.3885 3.71341 62.3885 3.952C62.3885 4.19059 62.1951 4.384 61.9565 4.384H61.7765C61.4725 4.384 61.2525 4.448 61.1165 4.576C60.9885 4.696 60.9245 4.908 60.9245 5.212V11.656C60.9245 11.9344 60.6988 12.16 60.4205 12.16ZM59.4065 6.856C59.1712 6.856 58.9805 6.66527 58.9805 6.43C58.9805 6.19473 59.1712 6.004 59.4065 6.004H62.0825C62.3177 6.004 62.5085 6.19473 62.5085 6.43C62.5085 6.66527 62.3177 6.856 62.0825 6.856H59.4065Z" fill="#D33030"/>
<path d="M65.474 12.304C64.986 12.304 64.578 12.216 64.25 12.04C63.93 11.864 63.69 11.632 63.53 11.344C63.37 11.056 63.29 10.74 63.29 10.396C63.29 9.988 63.394 9.64 63.602 9.352C63.818 9.064 64.118 8.848 64.502 8.704C64.886 8.552 65.338 8.476 65.858 8.476H66.4516C66.9986 8.476 67.4918 8.01076 67.286 7.504C67.182 7.24 67.018 7.044 66.794 6.916C66.578 6.78 66.302 6.712 65.966 6.712C65.59 6.712 65.266 6.808 64.994 7C64.8374 7.1059 64.7153 7.24227 64.6277 7.40911C64.5087 7.63565 64.3032 7.828 64.0473 7.828C63.7331 7.828 63.4809 7.54906 63.5964 7.25693C63.669 7.07339 63.7668 6.90775 63.89 6.76C64.13 6.464 64.434 6.24 64.802 6.088C65.17 5.936 65.558 5.86 65.966 5.86C66.526 5.86 66.99 5.964 67.358 6.172C67.726 6.372 67.998 6.656 68.174 7.024C68.358 7.384 68.45 7.812 68.45 8.308V11.6975C68.45 11.9529 68.2429 12.16 67.9875 12.16H67.7604C67.6423 12.16 67.5448 12.0678 67.5383 11.9499L67.5218 11.6532C67.5134 11.5016 67.2757 11.4439 67.178 11.56C67.058 11.704 66.914 11.832 66.746 11.944C66.586 12.056 66.398 12.144 66.182 12.208C65.966 12.272 65.73 12.304 65.474 12.304ZM65.618 11.452C65.89 11.452 66.138 11.392 66.362 11.272C66.594 11.152 66.79 10.992 66.95 10.792C67.11 10.592 67.23 10.368 67.31 10.12C67.398 9.864 67.442 9.6 67.442 9.328C67.442 9.28824 67.4097 9.256 67.37 9.256H65.942C65.558 9.256 65.246 9.304 65.006 9.4C64.774 9.488 64.606 9.616 64.502 9.784C64.398 9.952 64.346 10.14 64.346 10.348C64.346 10.572 64.394 10.768 64.49 10.936C64.586 11.096 64.73 11.224 64.922 11.32C65.114 11.408 65.346 11.452 65.618 11.452Z" fill="#D33030"/>
<path d="M72.7925 12.304C72.2165 12.304 71.7005 12.172 71.2445 11.908C70.7965 11.636 70.4445 11.26 70.1885 10.78C69.9325 10.292 69.8045 9.728 69.8045 9.088C69.8045 8.44 69.9325 7.876 70.1885 7.396C70.4445 6.916 70.7965 6.54 71.2445 6.268C71.7005 5.996 72.2165 5.86 72.7925 5.86C73.5045 5.86 74.1005 6.052 74.5805 6.436C74.9058 6.68668 75.1512 6.99424 75.3165 7.35871C75.4488 7.65046 75.205 7.948 74.8846 7.948C74.6445 7.948 74.4473 7.77326 74.3365 7.56027C74.2301 7.35573 74.0754 7.18498 73.8725 7.048C73.5605 6.832 73.1965 6.724 72.7805 6.724C72.4205 6.724 72.0925 6.816 71.7965 7C71.5085 7.176 71.2765 7.44 71.1005 7.792C70.9245 8.136 70.8365 8.568 70.8365 9.088C70.8365 9.472 70.8845 9.812 70.9805 10.108C71.0845 10.404 71.2245 10.652 71.4005 10.852C71.5765 11.052 71.7805 11.204 72.0125 11.308C72.2525 11.404 72.5085 11.452 72.7805 11.452C73.0605 11.452 73.3165 11.404 73.5485 11.308C73.7885 11.212 73.9885 11.072 74.1485 10.888C74.222 10.8035 74.2845 10.7114 74.336 10.6117C74.4455 10.3999 74.6424 10.228 74.8808 10.228C75.2026 10.228 75.4464 10.5277 75.3101 10.8191C75.1448 11.1723 74.9016 11.4753 74.5805 11.728C74.1005 12.112 73.5045 12.304 72.7925 12.304Z" fill="#D33030"/>
<path d="M79.5871 12.304C79.0271 12.304 78.5271 12.172 78.0871 11.908C77.6551 11.636 77.3151 11.26 77.0671 10.78C76.8191 10.292 76.6951 9.728 76.6951 9.088C76.6951 8.44 76.8191 7.876 77.0671 7.396C77.3151 6.908 77.6551 6.532 78.0871 6.268C78.5271 5.996 79.0351 5.86 79.6111 5.86C80.2111 5.86 80.7151 5.996 81.1231 6.268C81.5391 6.532 81.8551 6.884 82.0711 7.324C82.2871 7.764 82.3951 8.244 82.3951 8.764C82.3951 8.844 82.3951 8.928 82.3951 9.016C82.3951 9.18521 82.252 9.316 82.0828 9.316H77.8411C77.6257 9.316 77.4511 9.14139 77.4511 8.926C77.4511 8.71061 77.6257 8.536 77.8411 8.536H80.3713C80.9343 8.536 81.4321 8.03677 81.1489 7.55016C81.0706 7.4156 80.974 7.29621 80.8591 7.192C80.5231 6.872 80.0991 6.712 79.5871 6.712C79.2511 6.712 78.9391 6.792 78.6511 6.952C78.3631 7.112 78.1271 7.348 77.9431 7.66C77.7671 7.964 77.6791 8.348 77.6791 8.812V9.148C77.6791 9.652 77.7671 10.076 77.9431 10.42C78.1271 10.764 78.3631 11.024 78.6511 11.2C78.9391 11.368 79.2511 11.452 79.5871 11.452C80.0271 11.452 80.3791 11.364 80.6431 11.188C80.8195 11.065 80.9656 10.9099 81.0813 10.7226C81.1884 10.5491 81.3653 10.42 81.5691 10.42C81.8985 10.42 82.1354 10.7391 81.9696 11.0237C81.8946 11.1524 81.8085 11.2752 81.7111 11.392C81.4791 11.672 81.1831 11.896 80.8231 12.064C80.4711 12.224 80.0591 12.304 79.5871 12.304Z" fill="#D33030"/>
<path d="M84.2057 8.968C83.9704 8.968 83.7797 8.77727 83.7797 8.542C83.7797 8.30673 83.9704 8.116 84.2057 8.116H88.1057C88.341 8.116 88.5317 8.30673 88.5317 8.542C88.5317 8.77727 88.341 8.968 88.1057 8.968H84.2057Z" fill="#D33030" fill-opacity="0.12"/>
<path d="M92.2162 12.304C91.7282 12.304 91.3202 12.216 90.9922 12.04C90.6722 11.864 90.4322 11.632 90.2722 11.344C90.1122 11.056 90.0322 10.74 90.0322 10.396C90.0322 9.988 90.1362 9.64 90.3442 9.352C90.5602 9.064 90.8602 8.848 91.2442 8.704C91.6282 8.552 92.0802 8.476 92.6002 8.476H93.1938C93.7407 8.476 94.234 8.01076 94.0282 7.504C93.9242 7.24 93.7602 7.044 93.5362 6.916C93.3202 6.78 93.0442 6.712 92.7082 6.712C92.3322 6.712 92.0082 6.808 91.7362 7C91.5796 7.1059 91.4575 7.24227 91.3699 7.40911C91.2509 7.63565 91.0453 7.828 90.7895 7.828C90.4753 7.828 90.223 7.54906 90.3386 7.25693C90.4112 7.07339 90.509 6.90775 90.6322 6.76C90.8722 6.464 91.1762 6.24 91.5442 6.088C91.9122 5.936 92.3002 5.86 92.7082 5.86C93.2682 5.86 93.7322 5.964 94.1002 6.172C94.4682 6.372 94.7402 6.656 94.9162 7.024C95.1002 7.384 95.1922 7.812 95.1922 8.308V11.6975C95.1922 11.9529 94.9851 12.16 94.7297 12.16H94.5026C94.3845 12.16 94.287 12.0678 94.2805 11.9499L94.264 11.6532C94.2556 11.5016 94.0179 11.4439 93.9202 11.56C93.8002 11.704 93.6562 11.832 93.4882 11.944C93.3282 12.056 93.1402 12.144 92.9242 12.208C92.7082 12.272 92.4722 12.304 92.2162 12.304ZM92.3602 11.452C92.6322 11.452 92.8802 11.392 93.1042 11.272C93.3362 11.152 93.5322 10.992 93.6922 10.792C93.8522 10.592 93.9722 10.368 94.0522 10.12C94.1402 9.864 94.1842 9.6 94.1842 9.328C94.1842 9.28824 94.1519 9.256 94.1122 9.256H92.6842C92.3002 9.256 91.9882 9.304 91.7482 9.4C91.5162 9.488 91.3482 9.616 91.2442 9.784C91.1402 9.952 91.0882 10.14 91.0882 10.348C91.0882 10.572 91.1362 10.768 91.2322 10.936C91.3282 11.096 91.4722 11.224 91.6642 11.32C91.8562 11.408 92.0882 11.452 92.3602 11.452Z" fill="#D33030" fill-opacity="0.56"/>
<path d="M97.4107 12.16C97.1323 12.16 96.9067 11.9344 96.9067 11.656V6.508C96.9067 6.22965 97.1323 6.004 97.4107 6.004C97.689 6.004 97.9147 6.22965 97.9147 6.508V11.656C97.9147 11.9344 97.689 12.16 97.4107 12.16ZM97.4107 4.756C97.2107 4.756 97.0427 4.692 96.9067 4.564C96.7787 4.428 96.7147 4.26 96.7147 4.06C96.7147 3.86 96.7787 3.7 96.9067 3.58C97.0427 3.452 97.2107 3.388 97.4107 3.388C97.6027 3.388 97.7667 3.452 97.9027 3.58C98.0387 3.7 98.1067 3.86 98.1067 4.06C98.1067 4.26 98.0387 4.428 97.9027 4.564C97.7667 4.692 97.6027 4.756 97.4107 4.756Z" fill="#D33030" fill-opacity="0.56"/>
<path d="M5.13121 11.0249C5.6456 11.5177 5.2968 12.386 4.58445 12.386C4.38013 12.386 4.18375 12.3069 4.0365 12.1652L0.745841 8.99952C0.338133 8.60729 0.33671 7.95523 0.742702 7.56123L4.03498 4.36619C4.18314 4.22241 4.38147 4.142 4.58792 4.142C5.30182 4.142 5.65301 5.01077 5.13965 5.50687L3.01536 7.55976C2.60735 7.95406 2.60877 8.60845 3.0185 9.00097L5.13121 11.0249Z" fill="#D33030"/>
<path d="M9.88518 15.66C9.32125 15.66 8.91463 15.1195 9.07095 14.5777L13.1 0.612527C13.2046 0.249769 13.5366 0 13.9142 0C14.4781 0 14.8847 0.540516 14.7284 1.08235L10.6994 15.0475C10.5947 15.4102 10.2627 15.66 9.88518 15.66Z" fill="#D33030"/>
<path d="M19.2627 12.386C18.5497 12.386 18.1997 11.5175 18.7136 11.0231L20.817 8.99952C21.2247 8.60729 21.2262 7.95523 20.8202 7.56123L18.7051 5.50867C18.1923 5.01098 18.5446 4.142 19.2593 4.142C19.4668 4.142 19.666 4.22304 19.8146 4.36785L23.0928 7.56271C23.4968 7.95641 23.4954 8.60612 23.0897 8.99806L19.8131 12.1636C19.6654 12.3062 19.4681 12.386 19.2627 12.386Z" fill="#D33030"/>
</svg>
